<svg width="35" height="35" viewBox="0 0 35 35" fill="none" xmlns="http://www.w3.org/2000/svg">
<g clip-path="url(#clip0_124_45)">
<path d="M17.4998 2.91675C9.45864 2.91675 2.9165 9.45889 2.9165 17.5001C2.9165 25.5413 9.45863 32.0834 17.4998 32.0834C25.541 32.0834 32.0832 25.5413 32.0832 17.5001C32.0832 9.45889 25.541 2.91675 17.4998 2.91675V2.91675ZM17.4998 5.10425C20.5203 5.10425 23.2818 6.18074 25.4295 7.96822C23.4224 9.73525 21.1273 11.1732 18.652 12.2763C17.3624 9.93103 15.9625 7.65689 14.3909 5.51155C15.3857 5.25525 16.4237 5.10425 17.4998 5.10425L17.4998 5.10425ZM12.239 6.28345C13.8522 8.41665 15.2756 10.6928 16.5855 13.0425C13.8908 13.9787 11.0378 14.5834 8.02067 14.5834C7.16926 14.5834 6.32998 14.5267 5.49707 14.4453C6.41425 10.8175 8.91823 7.83971 12.239 6.28345H12.239ZM26.9804 9.51343C28.7736 11.6412 29.8618 14.3806 29.89 17.3819C28.3153 16.9869 26.6698 16.7709 24.9738 16.7709C23.6408 16.7709 22.353 16.943 21.0916 17.1896C20.6522 16.1718 20.171 15.1827 19.6759 14.196C22.3442 12.9894 24.821 11.4307 26.9804 9.51343V9.51343ZM17.6294 14.9993C18.0914 15.9117 18.5572 16.8175 18.9696 17.7579C14.5491 19.1405 10.7545 21.9471 8.20866 25.6947C6.28187 23.5107 5.10401 20.6496 5.10401 17.5001C5.10401 17.1979 5.12845 16.9024 5.14958 16.6057C6.09406 16.7025 7.04785 16.7709 8.02067 16.7709C11.4065 16.7709 14.6161 16.0879 17.6294 14.9993H17.6294ZM24.9738 18.9584C26.6135 18.9584 28.1955 19.1913 29.7048 19.6021C29.1326 22.9611 27.2241 25.8546 24.5323 27.7098C23.8839 24.8391 22.9763 22.0713 21.9375 19.3686C22.9395 19.1961 23.9216 18.9584 24.9738 18.9584V18.9584ZM19.7543 19.7787C20.8997 22.6959 21.8794 25.6969 22.5356 28.825C20.9967 29.5084 19.2956 29.8959 17.4998 29.8959C14.591 29.8959 11.9269 28.8916 9.81511 27.2214C12.1105 23.6815 15.6264 21.0301 19.7543 19.7787V19.7787Z" fill="white"/>
</g>
<defs>
<clipPath id="clip0_124_45">
<rect width="35" height="35" fill="white"/>
</clipPath>
</defs>
</svg>
