<svg width="35" height="35" viewBox="0 0 35 35" fill="none" xmlns="http://www.w3.org/2000/svg">
<g clip-path="url(#clip0_123_35)">
<path d="M17.4998 2.91675C9.45864 2.91675 2.9165 9.45889 2.9165 17.5001C2.9165 25.5413 9.45863 32.0834 17.4998 32.0834C25.541 32.0834 32.0832 25.5413 32.0832 17.5001C32.0832 9.45889 25.541 2.91675 17.4998 2.91675V2.91675ZM17.4998 5.10425C24.3588 5.10425 29.8957 10.6411 29.8957 17.5001C29.8957 23.0894 26.2184 27.7978 21.1457 29.3505V25.6206C21.1457 24.2278 20.3431 23.0334 19.1832 22.439C21.4714 22.0013 23.3549 20.7072 24.2414 18.9638C25.128 17.2204 24.9086 15.2419 23.6522 13.6506C23.9756 12.6551 24.3369 10.9089 23.4784 9.53479C21.8233 9.53479 20.7553 10.6693 20.2456 11.3748C19.3742 11.0885 18.4418 10.9401 17.4998 10.9376C16.5573 10.9384 15.6238 11.0854 14.7512 11.3705C14.2403 10.6647 13.1731 9.53479 11.5212 9.53479C10.5361 11.1117 11.1451 12.8076 11.4714 13.4996C10.1294 15.0849 9.84526 17.096 10.711 18.8808C11.5767 20.6657 13.4821 21.9971 15.8094 22.4433C14.857 22.9342 14.1437 23.8249 13.9252 24.9057H12.9668C12.021 24.9057 11.6536 24.5214 11.1424 23.8732C10.6378 23.2249 10.0953 22.7894 9.4434 22.6085C9.09194 22.5713 8.85517 22.8387 9.16142 23.0756C10.1961 23.78 10.2675 24.9329 10.6824 25.6875C11.0601 26.3671 11.834 26.9792 12.709 26.9792H13.854V29.3505C8.78124 27.7978 5.10401 23.0894 5.10401 17.5001C5.10401 10.6411 10.6409 5.10425 17.4998 5.10425H17.4998Z" fill="white"/>
</g>
<defs>
<clipPath id="clip0_123_35">
<rect width="35" height="35" fill="white"/>
</clipPath>
</defs>
</svg>
