<svg width="35" height="35" viewBox="0 0 35 35" fill="none" xmlns="http://www.w3.org/2000/svg">
<g clip-path="url(#clip0_124_40)">
<path d="M12.0314 3.64575C7.41315 3.64575 3.646 7.41291 3.646 12.0312V22.9687C3.646 27.5863 7.41302 31.3541 12.0314 31.3541H22.9689C27.5867 31.3541 31.3543 27.5864 31.3543 22.9687V12.0312C31.3543 7.41278 27.5865 3.64575 22.9689 3.64575H12.0314ZM12.0314 5.83325H22.9689C26.4042 5.83325 29.1668 8.59518 29.1668 12.0312V22.9687C29.1668 26.4038 26.4041 29.1666 22.9689 29.1666H12.0314C8.59543 29.1666 5.8335 26.4039 5.8335 22.9687V12.0312C5.8335 8.59505 8.59529 5.83325 12.0314 5.83325V5.83325ZM24.7918 8.74992C23.9861 8.74992 23.3335 9.40252 23.3335 10.2083C23.3335 11.014 23.9861 11.6666 24.7918 11.6666C25.5976 11.6666 26.2502 11.014 26.2502 10.2083C26.2502 9.40252 25.5976 8.74992 24.7918 8.74992ZM17.5002 10.2083C13.4862 10.2083 10.2085 13.486 10.2085 17.4999C10.2085 21.5139 13.4862 24.7916 17.5002 24.7916C21.5141 24.7916 24.7918 21.5139 24.7918 17.4999C24.7918 13.486 21.5141 10.2083 17.5002 10.2083ZM17.5002 12.3958C20.3316 12.3958 22.6043 14.6684 22.6043 17.4999C22.6043 20.3314 20.3316 22.6041 17.5002 22.6041C14.6687 22.6041 12.396 20.3314 12.396 17.4999C12.396 14.6684 14.6687 12.3958 17.5002 12.3958V12.3958Z" fill="white"/>
</g>
<defs>
<clipPath id="clip0_124_40">
<rect width="35" height="35" fill="white"/>
</clipPath>
</defs>
</svg>
