<svg width="341" height="73" viewBox="0 0 341 73" fill="none" xmlns="http://www.w3.org/2000/svg">
<g clip-path="url(#clip0_123_19)">
<rect width="163.978" height="72.6721" fill="white"/>
<path d="M138.715 36.727C138.715 45.2616 138.72 53.7972 138.705 62.3321C138.704 62.8058 138.824 62.9352 139.313 62.9337C145.312 62.9162 151.312 62.9171 157.311 62.9322C157.767 62.9337 157.903 62.8284 157.899 62.3651C157.876 59.6488 157.874 56.9316 157.9 54.2152C157.905 53.7319 157.736 53.6573 157.299 53.6603C154.97 53.6798 152.64 53.6747 150.31 53.6678C149.348 53.6648 149.483 53.7972 149.483 52.8791C149.48 39.0117 149.477 25.1452 149.494 11.2784C149.495 10.7165 149.342 10.5844 148.786 10.5892C145.651 10.616 142.517 10.6151 139.384 10.5898C138.857 10.5856 138.699 10.6906 138.701 11.2438C138.722 19.7381 138.715 28.2327 138.715 36.727V36.727ZM117.95 11.0458C117.983 11.0441 118.017 11.0422 118.051 11.0401C118.051 11.2817 118.051 11.5235 118.051 11.7648C118.051 28.5964 118.052 45.428 118.04 62.2589C118.039 62.7658 118.123 62.9397 118.697 62.9373C124.802 62.9132 130.907 62.9171 137.011 62.9327C137.518 62.9337 137.723 62.8606 137.715 62.2854C137.679 59.6097 137.685 56.9325 137.712 54.2553C137.716 53.7574 137.55 53.6566 137.081 53.6603C134.524 53.6807 131.967 53.6618 129.41 53.6784C128.987 53.6807 128.8 53.6296 128.803 53.1332C128.825 48.7941 128.822 44.4539 128.806 40.1141C128.804 39.671 128.954 39.5778 129.371 39.5832C131.083 39.6034 132.795 39.5793 134.506 39.5997C134.915 39.6049 135.026 39.4785 135.023 39.0854C135.007 36.449 135.007 33.8128 135.024 31.1767C135.026 30.7773 134.909 30.6648 134.506 30.6695C132.815 30.6909 131.123 30.6551 129.433 30.6921C128.896 30.7045 128.801 30.5339 128.804 30.0463C128.827 26.9642 128.828 23.8815 128.803 20.7994C128.8 20.3132 128.941 20.1993 129.419 20.2037C131.956 20.2266 134.492 20.2086 137.029 20.2206C137.4 20.2224 137.579 20.1671 137.576 19.7341C137.557 16.8545 137.558 13.9748 137.575 11.0952C137.577 10.6837 137.435 10.5943 137.042 10.5946C127.494 10.6046 117.946 10.6043 108.397 10.5959C108.049 10.5956 107.9 10.6545 107.872 11.0444C107.721 13.1662 107.534 15.2858 107.361 17.4059C107.129 20.2329 106.898 23.0599 106.668 25.8873C106.447 28.6132 106.231 31.3398 106.011 34.0663C105.776 36.974 105.535 39.8816 105.307 42.7898C105.193 44.2388 105.103 45.6888 104.995 47.2494C104.807 46.8779 104.831 46.5746 104.811 46.2814C104.749 45.3714 104.7 44.4608 104.63 43.5515C104.405 40.6021 104.176 37.6535 103.941 34.7044C103.722 31.9576 103.492 29.2119 103.268 26.4655C103.039 23.6585 102.811 20.8517 102.581 18.0451C102.39 15.7229 102.188 13.4015 102.015 11.0783C101.985 10.6764 101.827 10.5928 101.449 10.5946C98.17 10.6079 94.8909 10.6093 91.6118 10.5934C91.1842 10.5913 91.1231 10.705 91.1826 11.1042C91.9525 16.2273 92.6965 21.3544 93.4601 26.4787C94.3443 32.4236 95.2465 38.3655 96.1338 44.3104C97.0501 50.4551 97.9609 56.6007 98.8615 62.7478C98.9046 63.0426 98.9712 63.1719 99.3001 63.1713C102.806 63.1623 106.312 63.1629 109.817 63.1698C110.098 63.1704 110.212 63.0841 110.253 62.8004C110.611 60.3367 110.988 57.877 111.352 55.414C112.069 50.5694 112.775 45.7234 113.497 40.8797C114.219 36.0354 114.96 31.1948 115.684 26.3508C116.445 21.2503 117.195 16.1476 117.95 11.0458V11.0458ZM40.6886 62.6464C40.643 62.6531 40.5977 62.6599 40.5521 62.6665C40.5521 62.4063 40.5521 62.147 40.5521 61.8874C40.5521 45.036 40.5491 28.1846 40.5647 11.3331C40.565 10.7691 40.4594 10.5805 39.8363 10.5862C36.1655 10.6187 32.4944 10.6022 28.8234 10.6022C27.8202 10.6022 27.8298 10.6033 27.7316 11.5909C27.3121 15.8029 26.8902 20.0145 26.4628 24.2256C26.0579 28.2149 25.6562 32.2049 25.2227 36.1915C25.1563 36.8025 25.1966 37.4399 24.9302 38.1648C24.6959 35.9359 24.4704 33.8473 24.2578 31.7576C23.9109 28.3527 23.5771 24.9463 23.2296 21.5411C22.8738 18.056 22.4997 14.5722 22.1588 11.0856C22.1191 10.6773 21.975 10.594 21.5941 10.5953C17.6964 10.6067 13.7984 10.609 9.90056 10.5928C9.47993 10.591 9.39699 10.7279 9.39699 11.1096C9.40561 28.2048 9.40615 45.2992 9.39519 62.3943C9.39456 62.8209 9.50718 62.9358 9.94152 62.9327C12.4367 62.9117 14.9324 62.9081 17.4274 62.9343C17.9298 62.9397 18.08 62.832 18.0791 62.3116C18.0565 52.8015 18.0562 43.2907 18.0506 33.7803C18.0506 33.5977 18.0506 33.4157 18.0506 33.2337C18.3195 35.2942 18.515 37.3496 18.679 39.4072C18.9451 42.7387 19.4377 46.0437 19.8669 49.3565C20.2514 52.3276 20.6479 55.2976 21.038 58.2672C21.22 59.6525 21.3962 61.0386 21.5825 62.4223C21.6192 62.6966 21.6342 62.9463 22.0744 62.9352C23.5171 62.9006 24.9615 62.9187 26.4051 62.9253C26.6663 62.9267 26.8144 62.881 26.8523 62.5748C27.0845 60.7068 27.3412 58.8417 27.5847 56.9752C28.0537 53.382 28.4973 49.7858 28.9919 46.1965C29.468 42.7433 29.8073 39.2785 30.0746 35.805C30.1526 34.791 30.2523 33.7782 30.3533 32.636C30.5304 32.9999 30.4735 33.2466 30.4729 33.4833C30.465 43.0958 30.4536 52.7076 30.4365 62.3192C30.4356 62.6966 30.4221 62.9382 30.9633 62.9367C37.395 62.9147 43.827 62.9177 50.2584 62.9327C50.6665 62.9337 50.7938 62.7908 50.8238 62.4298C50.9079 61.4206 51.0064 60.4129 51.1049 59.4043C51.2916 57.4896 51.4925 55.5758 51.662 53.6596C51.6972 53.2632 51.8535 53.1684 52.2328 53.176C53.3461 53.1994 54.4637 53.2361 55.5726 53.1649C56.2215 53.1234 56.361 53.3835 56.4145 53.9235C56.6923 56.7249 57.0141 59.5225 57.268 62.3252C57.3155 62.851 57.4871 62.9337 57.9655 62.9322C64.627 62.9177 71.2882 62.9147 77.9496 62.9367C78.5103 62.9388 78.6215 62.7817 78.6192 62.2619C78.5996 56.9295 78.6074 51.5961 78.6074 46.2627C78.6074 46.1003 78.6121 45.9378 78.6098 45.776C78.6066 45.5678 78.7202 45.5077 78.9168 45.4867C79.3036 45.4451 79.3867 45.6497 79.4564 45.9754C80.635 51.4728 81.8325 56.9662 83.0057 62.465C83.0801 62.8139 83.1881 62.9313 83.5523 62.9297C86.7492 62.9171 89.946 62.9132 93.1421 62.9327C93.5854 62.9358 93.6112 62.7697 93.5298 62.4349C93.3528 61.7085 93.1867 60.9784 93.016 60.2504C91.5985 54.2056 90.1818 48.1608 88.7603 42.1176C88.6914 41.8233 88.7031 41.5926 88.9459 41.3505C89.9452 40.3578 90.6454 39.1657 91.1842 37.8852C92.3237 35.1733 92.7427 32.3217 92.8476 29.411C92.969 26.0708 92.7278 22.7691 91.6721 19.5693C89.8685 14.1003 85.7663 10.4785 79.1768 10.5916C75.7546 10.6509 72.3298 10.6181 68.9068 10.5871C68.3125 10.582 68.1668 10.7207 68.1671 11.3112C68.1855 28.0411 68.1821 44.7707 68.1821 61.5009C68.1821 61.7416 68.1821 61.9831 68.1821 62.2244C67.5531 58.7178 66.9994 55.2064 66.4589 51.6939C65.7387 47.0139 65.0341 42.3317 64.3125 37.652C63.6315 33.2319 62.9337 28.8145 62.2484 24.3953C61.5476 19.8761 60.8442 15.3574 60.1684 10.8341C60.1082 10.4291 59.9681 10.351 59.5958 10.3521C56.1719 10.3639 52.7486 10.363 49.325 10.3528C48.9607 10.3519 48.7973 10.4141 48.7377 10.829C48.3804 13.3125 47.9818 15.7903 47.5948 18.2692C47.0352 21.848 46.4714 25.4259 45.9144 29.0052C45.3575 32.5839 44.8103 36.1645 44.2532 39.7433C43.6964 43.3223 43.1313 46.9004 42.5743 50.4792C41.9429 54.5341 41.3169 58.5906 40.6886 62.6464V62.6464ZM82.3682 0.0166322C109.549 0.0166322 136.729 0.018712 163.909 0.00277141C164.537 0.00246337 164.718 0.135149 164.717 0.780627C164.698 24.4858 164.698 48.1909 164.718 71.8954C164.718 72.5482 164.526 72.67 163.906 72.6694C109.545 72.6559 55.1835 72.6565 0.822624 72.6565C0 72.6565 0 72.6565 0 71.8618C0 48.1774 0 24.4921 0 0.807733C0 0.016633 0 0.0166322 0.825992 0.0166322C28.0069 0.0166322 55.1875 0.0166322 82.3682 0.0166322Z" fill="#ED1E34"/>
<path d="M254.538 36.2731C254.538 40.1253 254.538 43.9772 254.538 47.8291C254.538 50.1809 254.545 52.5331 254.532 54.8846C254.53 55.2486 254.585 55.4351 255.025 55.4179C256.034 55.378 257.046 55.4111 258.056 55.3728C259.859 55.3043 261.05 54.3426 261.511 52.6189C261.664 52.048 261.719 51.4674 261.718 50.8757C261.714 41.1445 261.715 31.4129 261.715 21.6811C261.715 21.4786 261.718 21.2753 261.707 21.0731C261.565 18.5626 260.221 17.2489 257.69 17.1641C256.908 17.1379 256.121 17.1852 255.34 17.131C254.721 17.088 254.517 17.2435 254.521 17.905C254.55 24.0274 254.538 30.1501 254.538 36.2731V36.2731ZM246.859 36.2881C246.859 27.7947 246.864 19.3013 246.847 10.8079C246.846 10.2779 246.95 10.0954 247.539 10.1001C251.168 10.1308 254.795 10.1122 258.424 10.1173C259.87 10.1194 261.304 10.2605 262.699 10.6482C266.255 11.6361 268.231 14.0465 269.005 17.5058C269.266 18.6732 269.395 19.8606 269.394 21.0608C269.39 31.3582 269.397 41.6558 269.381 51.9532C269.379 53.4768 269.12 54.9773 268.613 56.4218C267.423 59.8053 264.905 61.6011 261.401 62.1892C260.242 62.3838 259.069 62.4434 257.893 62.4395C254.47 62.4289 251.048 62.4215 247.626 62.4494C247.032 62.4545 246.838 62.3492 246.841 61.707C246.867 53.2341 246.859 44.7608 246.859 36.2881" fill="#ED1E34"/>
<path d="M291.785 36.2496C291.785 40.3464 291.785 44.4428 291.785 48.5389C291.785 50.0394 291.778 51.5404 291.788 53.0406C291.799 54.899 292.697 55.8171 294.563 55.8827C295.139 55.9022 295.717 55.9043 296.295 55.8901C298.236 55.8411 299.103 55.0012 299.195 53.0926C299.203 52.9308 299.202 52.7683 299.202 52.6059C299.202 41.716 299.201 30.8265 299.206 19.9363C299.206 19.4875 299.164 19.0453 299.076 18.6079C298.845 17.4786 298.016 16.7447 296.842 16.6932C295.937 16.6538 295.027 16.6511 294.121 16.6956C292.954 16.7528 292.181 17.4401 291.905 18.5574C291.806 18.956 291.784 19.356 291.784 19.763C291.786 25.2586 291.785 30.7544 291.785 36.2496V36.2496ZM284.113 36.2445C284.113 30.3245 284.085 24.4042 284.127 18.4843C284.142 16.4357 284.589 14.4582 285.842 12.7502C287.256 10.8217 289.291 9.97856 291.609 9.75986C294.156 9.52013 296.714 9.55678 299.266 9.7433C303.251 10.0351 306.017 12.5634 306.633 16.4652C306.804 17.5485 306.885 18.6359 306.885 19.733C306.879 30.9038 306.885 42.0754 306.877 53.246C306.876 55.038 306.652 56.7992 305.903 58.4612C304.839 60.8219 302.94 62.2057 300.418 62.6163C297.132 63.1508 293.791 63.1989 290.516 62.6004C287.005 61.9581 284.942 59.6533 284.351 56.1759C284.178 55.1532 284.1 54.1289 284.102 53.0926C284.109 47.4764 284.105 41.8603 284.105 36.2445C284.108 36.2445 284.11 36.2445 284.113 36.2445" fill="#ED1E34"/>
<path d="M220.88 32.3829C220.88 25.184 220.888 17.9855 220.865 10.7868C220.864 10.2141 221.034 10.095 221.58 10.1031C223.663 10.134 225.747 10.1386 227.829 10.101C228.415 10.0902 228.575 10.2207 228.575 10.82C228.556 24.6494 228.56 38.4783 228.559 52.3081C228.559 52.815 228.57 53.3182 228.667 53.8212C228.905 55.0494 229.725 55.7915 230.994 55.8606C231.611 55.8938 232.231 55.9007 232.848 55.8841C234.746 55.8336 235.615 54.9868 235.712 53.1142C235.73 52.7903 235.721 52.4655 235.721 52.1406C235.721 38.3724 235.725 24.604 235.708 10.8353C235.707 10.2634 235.824 10.0872 236.437 10.0992C238.58 10.1413 240.726 10.1283 242.871 10.1052C243.315 10.1001 243.41 10.2333 243.41 10.65C243.399 24.946 243.405 39.2418 243.394 53.5369C243.392 55.0816 243.169 56.6052 242.596 58.0596C241.654 60.455 239.888 62.0026 237.366 62.5155C234.011 63.1989 230.588 63.2134 227.235 62.5682C223.723 61.8934 221.683 59.5757 221.13 56.0902C220.961 55.0274 220.875 53.9605 220.877 52.8835C220.883 46.0497 220.88 39.2162 220.88 32.3829" fill="#ED1E34"/>
<path d="M174.477 48.8542C174.477 46.5545 174.489 44.648 174.466 42.7417C174.461 42.3136 174.587 42.1979 175.018 42.2023C177.122 42.2228 179.225 42.2264 181.329 42.2003C181.816 42.1943 181.951 42.3281 181.947 42.8079C181.927 46.0115 181.933 49.2157 181.94 52.4203C181.941 52.8646 181.973 53.3113 182.025 53.7535C182.164 54.9517 182.821 55.6525 184.039 55.8811C184.957 56.0541 185.886 56.0532 186.803 55.8811C188.056 55.645 188.756 54.887 188.824 53.6281C188.882 52.5157 188.867 51.3991 188.872 50.2837C188.878 48.763 188.849 47.2419 188.879 45.7212C188.914 43.9847 188.214 42.6385 186.822 41.5887C184.107 39.5417 181.439 37.4324 178.697 35.4217C175.873 33.3507 174.508 30.6034 174.486 27.1805C174.467 24.382 174.465 21.5832 174.489 18.7851C174.499 17.7325 174.635 16.6839 174.906 15.66C175.813 12.225 178.027 10.2279 181.702 9.79081C184.32 9.47924 186.974 9.43796 189.592 9.86513C193.292 10.4683 195.585 12.8372 196.138 16.4929C196.305 17.5978 196.386 18.7054 196.383 19.8223C196.373 22.6009 196.369 25.3792 196.388 28.1571C196.391 28.6096 196.308 28.7871 195.792 28.7795C193.668 28.7492 191.544 28.751 189.42 28.7787C188.92 28.7853 188.809 28.6321 188.813 28.1647C188.834 25.3662 188.823 22.5678 188.822 19.7694C188.822 19.4249 188.809 19.0844 188.741 18.7418C188.481 17.4414 187.884 16.8148 186.557 16.6238C185.765 16.5097 184.955 16.499 184.158 16.6626C182.959 16.9083 182.221 17.6306 182.165 18.8136C182.047 21.3661 182.027 23.9242 182.177 26.4745C182.255 27.8052 183.058 28.7891 184.117 29.589C186.88 31.6752 189.629 33.779 192.386 35.8709C194.466 37.449 195.958 39.3906 196.319 42.0258C196.408 42.6671 196.491 43.3147 196.495 43.96C196.513 47.2659 196.513 50.5709 196.496 53.8762C196.49 55.0539 196.311 56.2181 195.965 57.3491C194.972 60.6075 192.642 62.3606 189.303 62.7562C186.623 63.0741 183.909 63.1156 181.229 62.6855C177.548 62.0944 175.274 59.7556 174.72 56.1089C174.682 55.8486 174.63 55.59 174.601 55.3292C174.355 53.043 174.54 50.7499 174.477 48.8542" fill="#ED1E34"/>
<path d="M310.099 48.8532C310.099 46.531 310.108 44.6247 310.09 42.7191C310.086 42.3295 310.189 42.1993 310.601 42.2023C312.746 42.2219 314.892 42.2249 317.036 42.2017C317.499 42.1963 317.568 42.3753 317.566 42.7702C317.553 45.994 317.556 49.2187 317.562 52.4429C317.563 52.8474 317.591 53.2535 317.636 53.6551C317.785 54.9742 318.415 55.6646 319.745 55.8977C320.641 56.0556 321.551 56.0531 322.448 55.8781C323.666 55.6411 324.398 54.8876 324.441 53.6662C324.546 50.7072 324.564 47.7456 324.43 44.7878C324.369 43.4251 323.534 42.4289 322.472 41.6157C321.201 40.6456 319.931 39.677 318.66 38.7093C317.21 37.6044 315.783 36.4701 314.303 35.4037C311.482 33.369 310.138 30.6172 310.109 27.2183C310.086 24.3997 310.084 21.5805 310.113 18.7622C310.124 17.587 310.29 16.4198 310.626 15.2854C311.608 11.9684 313.954 10.1846 317.347 9.78808C319.966 9.48244 322.617 9.44217 325.237 9.86663C328.887 10.4583 331.195 12.8275 331.755 16.4553C331.923 17.5394 332.007 18.6269 332.004 19.7239C331.994 22.5428 331.988 25.3614 332.013 28.18C332.018 28.6728 331.862 28.7823 331.39 28.7768C329.266 28.7539 327.142 28.7531 325.018 28.7774C324.556 28.7828 324.43 28.6586 324.434 28.2025C324.455 25.4041 324.447 22.6057 324.441 19.8069C324.44 19.4646 324.421 19.1172 324.361 18.7803C324.119 17.435 323.505 16.8048 322.155 16.6198C321.363 16.5115 320.553 16.4995 319.756 16.6662C318.572 16.914 317.839 17.6489 317.784 18.8365C317.671 21.3684 317.654 23.9064 317.795 26.4368C317.87 27.7929 318.68 28.7894 319.758 29.6025C322.522 31.6865 325.27 33.7916 328.027 35.885C330.108 37.4646 331.587 39.4147 331.947 42.0483C332.034 42.689 332.113 43.3379 332.116 43.9831C332.134 47.268 332.135 50.5537 332.119 53.8386C332.113 55.0373 331.932 56.2196 331.578 57.3701C330.579 60.6316 328.238 62.3687 324.902 62.7591C322.221 63.0726 319.508 63.1096 316.827 62.684C313.179 62.104 310.911 59.739 310.334 56.0872C309.933 53.5429 310.189 50.9869 310.099 48.8532" fill="#ED1E34"/>
<path d="M253.245 3.78851C227.241 3.78851 201.236 3.78582 175.232 3.80322C174.611 3.80353 174.419 3.66792 174.462 3.04793C174.522 2.18006 174.488 1.30471 174.471 0.43298C174.465 0.127953 174.542 -0.0287581 174.88 0.0136731C175.023 0.0316929 175.169 0.0166765 175.313 0.0166765C227.259 0.0166765 279.206 0.0166765 331.154 0.0166765C332.001 0.0166765 332.001 0.0166788 332.001 0.847823C332.001 1.6792 331.988 2.51095 332.007 3.34148C332.016 3.67392 331.934 3.83903 331.567 3.79182C331.404 3.7708 331.237 3.78851 331.072 3.78851C305.13 3.78851 279.187 3.78851 253.245 3.78851" fill="#ED1E34"/>
<path d="M254.194 72.6565C228.21 72.6565 202.227 72.6535 176.244 72.6725C175.586 72.6725 175.412 72.498 175.453 71.8768C175.508 71.0285 175.482 70.1742 175.459 69.323C175.45 68.9785 175.556 68.8362 175.909 68.8814C176.052 68.9003 176.198 68.8844 176.343 68.8844C228.268 68.8844 280.194 68.8844 332.121 68.8844C332.99 68.8844 332.99 68.8844 332.99 69.7546C332.99 70.5864 332.978 71.4181 332.997 72.2489C333.004 72.5663 332.906 72.6972 332.578 72.6596C332.416 72.6409 332.249 72.6565 332.083 72.6565C306.121 72.6565 280.158 72.6565 254.194 72.6565" fill="#ED1E34"/>
<path d="M212.094 39.9492C212.094 47.2283 212.088 54.507 212.108 61.7861C212.11 62.3215 211.981 62.459 211.433 62.4499C209.31 62.4154 207.185 62.4117 205.063 62.4514C204.485 62.4629 204.404 62.2764 204.404 61.771C204.417 47.2334 204.415 32.6958 204.413 18.1579C204.412 17.2889 204.563 17.3448 203.591 17.3427C201.756 17.3388 199.92 17.3309 198.085 17.3493C197.66 17.3538 197.469 17.2913 197.476 16.7979C197.507 14.7503 197.501 12.7021 197.48 10.6544C197.475 10.2339 197.585 10.11 198.024 10.1109C204.849 10.1247 211.675 10.1232 218.501 10.113C218.891 10.1121 219.032 10.2005 219.029 10.6126C219.008 12.6807 219.006 14.7491 219.03 16.8169C219.034 17.2608 218.874 17.3532 218.461 17.3493C216.565 17.3315 214.667 17.3601 212.77 17.3295C212.242 17.3213 212.079 17.4371 212.08 17.9906C212.102 25.31 212.094 32.6296 212.094 39.9492" fill="#ED1E34"/>
<path d="M272.851 36.2764C272.851 27.7809 272.857 19.2848 272.838 10.7889C272.836 10.2207 273 10.0947 273.551 10.1028C275.694 10.1341 277.839 10.1266 279.984 10.1061C280.404 10.1025 280.541 10.1951 280.541 10.6349C280.529 27.7282 280.529 44.8209 280.541 61.9146C280.541 62.3522 280.409 62.4494 279.986 62.4455C277.82 62.4244 275.654 62.4093 273.49 62.453C272.897 62.465 272.841 62.2529 272.842 61.7642C272.855 53.2686 272.851 44.7722 272.851 36.2764" fill="#ED1E34"/>
<path d="M78.6055 28.7932C78.6055 26.1569 78.6196 23.5205 78.593 20.8852C78.5875 20.3632 78.7034 20.1909 79.2673 20.2023C80.301 20.223 80.98 20.6631 81.37 21.5905C81.7765 22.5582 81.9316 23.5837 82.0099 24.6092C82.2582 27.8905 82.2754 31.1693 81.6755 34.4237C81.5463 35.1226 81.3489 35.8035 80.9628 36.4145C80.4874 37.1684 79.7732 37.4595 78.8968 37.3167C78.499 37.2514 78.6102 36.9782 78.6102 36.7623C78.6031 34.3492 78.6055 31.9364 78.6055 29.523C78.6055 29.2796 78.6055 29.0365 78.6055 28.7932" fill="#EA1E34"/>
<path d="M54.1382 28.1632C54.3656 30.4978 54.5935 32.8321 54.8198 35.167C55.0912 37.9663 55.3613 40.766 55.6327 43.565C55.6874 44.1291 55.74 44.6931 55.8058 45.2565C55.8432 45.5768 55.766 45.7399 55.3864 45.7308C54.5014 45.7092 53.6145 45.7114 52.7292 45.7303C52.3648 45.7384 52.2764 45.6189 52.315 45.2686C52.5165 43.4387 52.6992 41.6068 52.88 39.7742C53.1575 36.9556 53.4276 34.1355 53.7017 31.316C53.8042 30.2611 53.9088 29.2064 54.0128 28.1511C54.0547 28.1554 54.0966 28.159 54.1382 28.1632" fill="#EA1E34"/>
</g>
<defs>
<clipPath id="clip0_123_19">
<rect width="341" height="72.6721" fill="white"/>
</clipPath>
</defs>
</svg>
